<svg width="21" height="18" viewBox="0 0 21 18" fill="none" xmlns="http://www.w3.org/2000/svg">
<path d="M0.97998 1.00781C0.97998 0.789062 1.0542 0.609375 1.20264 0.46875C1.35107 0.328125 1.52686 0.257812 1.72998 0.257812H3.81592C4.39404 0.257812 4.92139 0.425781 5.39795 0.761719C5.87451 1.09766 6.21435 1.53906 6.41748 2.08594L8.97217 9.42188C9.05029 9.67188 9.19873 9.87109 9.41748 10.0195C9.63623 10.168 9.87842 10.2422 10.144 10.2422H17.1284C17.4253 10.2422 17.687 10.1523 17.9136 9.97266C18.1401 9.79297 18.2847 9.5625 18.3472 9.28125L19.4487 4.26562C19.5425 3.875 19.4644 3.52344 19.2144 3.21094C18.9644 2.89844 18.6362 2.74219 18.23 2.74219H11.2222C11.019 2.74219 10.8433 2.67188 10.6948 2.53125C10.5464 2.39062 10.4722 2.21094 10.4722 1.99219C10.4722 1.78906 10.5464 1.61328 10.6948 1.46484C10.8433 1.31641 11.019 1.24219 11.2222 1.24219H18.23C19.1206 1.24219 19.8394 1.58594 20.3862 2.27344C20.9331 2.96094 21.1128 3.73438 20.9253 4.59375L19.8003 9.58594C19.6597 10.2266 19.3394 10.7461 18.8394 11.1445C18.3394 11.543 17.769 11.7422 17.1284 11.7422H10.144C9.56592 11.7422 9.03857 11.5742 8.56201 11.2383C8.08545 10.9023 7.7456 10.4609 7.54248 9.91406L4.98779 2.57812C4.90967 2.32812 4.76123 2.12891 4.54248 1.98047C4.32373 1.83203 4.08154 1.75781 3.81592 1.75781H1.72998C1.52686 1.75781 1.35107 1.68359 1.20264 1.53516C1.0542 1.38672 0.97998 1.21094 0.97998 1.00781ZM10.2378 13.7578C9.89404 13.7578 9.59717 13.8789 9.34717 14.1211C9.09717 14.3633 8.97217 14.6562 8.97217 15C8.97217 15.3438 9.09717 15.6367 9.34717 15.8789C9.59717 16.1211 9.89404 16.2422 10.2378 16.2422C10.5815 16.2422 10.8745 16.1211 11.1167 15.8789C11.3589 15.6367 11.48 15.3438 11.48 15C11.48 14.6562 11.3589 14.3633 11.1167 14.1211C10.8745 13.8789 10.5815 13.7578 10.2378 13.7578ZM7.47217 15C7.47217 14.2344 7.7417 13.5859 8.28076 13.0547C8.81982 12.5234 9.47217 12.2578 10.2378 12.2578C10.9878 12.2578 11.6323 12.5234 12.1714 13.0547C12.7104 13.5859 12.98 14.2344 12.98 15C12.98 15.7656 12.7104 16.4141 12.1714 16.9453C11.6323 17.4766 10.9878 17.7422 10.2378 17.7422C9.47217 17.7422 8.81982 17.4766 8.28076 16.9453C7.7417 16.4141 7.47217 15.7656 7.47217 15ZM15.98 15C15.98 14.6562 16.1011 14.3633 16.3433 14.1211C16.5854 13.8789 16.8784 13.7578 17.2222 13.7578C17.5659 13.7578 17.8628 13.8789 18.1128 14.1211C18.3628 14.3633 18.4878 14.6562 18.4878 15C18.4878 15.3438 18.3628 15.6367 18.1128 15.8789C17.8628 16.1211 17.5659 16.2422 17.2222 16.2422C16.8784 16.2422 16.5854 16.1211 16.3433 15.8789C16.1011 15.6367 15.98 15.3438 15.98 15ZM17.2222 12.2578C16.4722 12.2578 15.8276 12.5234 15.2886 13.0547C14.7495 13.5859 14.48 14.2344 14.48 15C14.48 15.7656 14.7495 16.4141 15.2886 16.9453C15.8276 17.4766 16.4722 17.7422 17.2222 17.7422C17.9878 17.7422 18.6401 17.4766 19.1792 16.9453C19.7183 16.4141 19.9878 15.7656 19.9878 15C19.9878 14.2344 19.7183 13.5859 19.1792 13.0547C18.6401 12.5234 17.9878 12.2578 17.2222 12.2578Z" fill="#333333"/>
</svg>
