<svg width="126" height="66" viewBox="0 0 126 66" fill="none" xmlns="http://www.w3.org/2000/svg">
<g clip-path="url(#clip0_1_362)">
<g clip-path="url(#clip1_1_362)">
<g clip-path="url(#clip2_1_362)">
<path d="M35.7777 25.9789C35.7777 17.6952 29.0625 10.98 20.7789 10.98C12.4952 10.98 5.78003 17.6952 5.78003 25.9789C5.78003 33.4652 11.2649 39.6702 18.4353 40.7955V30.3145H14.627V25.9789H18.4353V22.6744C18.4353 18.9153 20.6745 16.8389 24.1005 16.8389C25.7415 16.8389 27.458 17.1318 27.458 17.1318V20.823H25.5668C23.7035 20.823 23.1224 21.9791 23.1224 23.1653V25.9789H27.2823L26.6173 30.3145H23.1224V40.7955C30.2929 39.6702 35.7777 33.4652 35.7777 25.9789Z" fill="#1877F2"/>
</g>
</g>
</g>
<g clip-path="url(#clip3_1_362)">
<g clip-path="url(#clip4_1_362)">
<g clip-path="url(#clip5_1_362)">
<path d="M60.78 10.98C56.705 10.98 56.1963 10.9987 54.5963 11.07C52.9988 11.145 51.9113 11.3962 50.955 11.7675C49.9688 12.15 49.1313 12.6637 48.2975 13.4975C47.4638 14.3312 46.9488 15.1675 46.5675 16.155C46.1963 17.1112 45.9438 18.1987 45.87 19.7962C45.795 21.3962 45.78 21.905 45.78 25.98C45.78 30.055 45.7988 30.5637 45.87 32.1637C45.945 33.76 46.1963 34.8487 46.5675 35.805C46.95 36.79 47.4638 37.6287 48.2975 38.4625C49.1313 39.295 49.9675 39.8112 50.955 40.1925C51.9125 40.5625 53 40.8162 54.5963 40.89C56.1963 40.965 56.705 40.98 60.78 40.98C64.855 40.98 65.3638 40.9612 66.9638 40.89C68.56 40.815 69.6488 40.5625 70.605 40.1925C71.59 39.81 72.4288 39.295 73.2625 38.4625C74.095 37.6287 74.6113 36.7937 74.9925 35.805C75.3625 34.8487 75.6163 33.76 75.69 32.1637C75.765 30.5637 75.78 30.055 75.78 25.98C75.78 21.905 75.7613 21.3962 75.69 19.7962C75.615 18.2 75.3625 17.11 74.9925 16.155C74.61 15.1687 74.095 14.3312 73.2625 13.4975C72.4288 12.6637 71.5938 12.1487 70.605 11.7675C69.6488 11.3962 68.56 11.1437 66.9638 11.07C65.3638 10.995 64.855 10.98 60.78 10.98ZM60.78 13.68C64.7838 13.68 65.2613 13.7 66.8425 13.7687C68.305 13.8375 69.0988 14.08 69.6263 14.2875C70.3288 14.5587 70.8263 14.8837 71.3538 15.4075C71.8775 15.9325 72.2025 16.4312 72.4738 17.1337C72.6788 17.6612 72.9238 18.455 72.99 19.9175C73.0613 21.5 73.0775 21.975 73.0775 25.98C73.0775 29.985 73.0588 30.4612 72.985 32.0425C72.9088 33.505 72.665 34.2987 72.4588 34.8262C72.1788 35.5287 71.86 36.0262 71.335 36.5537C70.8113 37.0775 70.305 37.4025 69.61 37.6737C69.085 37.8787 68.2788 38.1237 66.8163 38.19C65.2238 38.2612 64.755 38.2775 60.7425 38.2775C56.7288 38.2775 56.26 38.2587 54.6688 38.185C53.205 38.1087 52.3988 37.865 51.8738 37.6587C51.1625 37.3787 50.6738 37.06 50.15 36.535C49.6238 36.0112 49.2875 35.505 49.025 34.81C48.8188 34.285 48.5763 33.4787 48.5 32.0162C48.4438 30.4412 48.4238 29.955 48.4238 25.9612C48.4238 21.9662 48.4438 21.4787 48.5 19.885C48.5763 18.4225 48.8188 17.6175 49.025 17.0925C49.2875 16.38 49.6238 15.8925 50.15 15.3662C50.6738 14.8425 51.1625 14.505 51.8738 14.2437C52.3988 14.0362 53.1875 13.7925 54.65 13.7175C56.2438 13.6612 56.7125 13.6425 60.7238 13.6425L60.78 13.68ZM60.78 18.2775C56.5238 18.2775 53.0775 21.7275 53.0775 25.98C53.0775 30.2362 56.5275 33.6825 60.78 33.6825C65.0363 33.6825 68.4825 30.2325 68.4825 25.98C68.4825 21.7237 65.0325 18.2775 60.78 18.2775ZM60.78 30.98C58.0175 30.98 55.78 28.7425 55.78 25.98C55.78 23.2175 58.0175 20.98 60.78 20.98C63.5425 20.98 65.78 23.2175 65.78 25.98C65.78 28.7425 63.5425 30.98 60.78 30.98ZM70.5875 17.9737C70.5875 18.9675 69.78 19.7737 68.7875 19.7737C67.7938 19.7737 66.9875 18.9662 66.9875 17.9737C66.9875 16.9812 67.795 16.175 68.7875 16.175C69.7788 16.1737 70.5875 16.9812 70.5875 17.9737Z" fill="#E4405F"/>
</g>
</g>
</g>
<g clip-path="url(#clip6_1_362)">
<g clip-path="url(#clip7_1_362)">
<g clip-path="url(#clip8_1_362)">
<path d="M100.784 10.98H100.776C92.5057 10.98 85.78 17.7075 85.78 25.98C85.78 29.2612 86.8375 32.3025 88.6357 34.7719L86.7663 40.3444L92.5319 38.5012C94.9038 40.0725 97.7332 40.98 100.784 40.98C109.054 40.98 115.78 34.2506 115.78 25.98C115.78 17.7094 109.054 10.98 100.784 10.98Z" fill="#4CAF50"/>
<path d="M109.512 32.1618C109.15 33.1837 107.714 34.0312 106.568 34.2787C105.784 34.4456 104.761 34.5787 101.314 33.15C96.9063 31.3237 94.0675 26.8443 93.8463 26.5537C93.6344 26.2631 92.065 24.1818 92.065 22.0293C92.065 19.8768 93.1582 18.8287 93.5988 18.3787C93.9607 18.0093 94.5588 17.8406 95.1325 17.8406C95.3182 17.8406 95.485 17.85 95.635 17.8575C96.0757 17.8762 96.2969 17.9025 96.5875 18.5981C96.9494 19.47 97.8307 21.6225 97.9357 21.8437C98.0425 22.065 98.1494 22.365 97.9994 22.6556C97.8588 22.9556 97.735 23.0887 97.5138 23.3437C97.2925 23.5987 97.0825 23.7937 96.8613 24.0675C96.6588 24.3056 96.43 24.5606 96.685 25.0012C96.94 25.4325 97.8213 26.8706 99.1188 28.0256C100.793 29.5162 102.151 29.9925 102.636 30.195C102.998 30.345 103.429 30.3093 103.694 30.0281C104.029 29.6662 104.444 29.0662 104.866 28.4756C105.166 28.0518 105.544 27.9993 105.942 28.1493C106.347 28.29 108.49 29.3493 108.931 29.5687C109.371 29.79 109.662 29.895 109.769 30.0806C109.874 30.2662 109.874 31.1381 109.512 32.1618Z" fill="#FAFAFA"/>
</g>
</g>
</g>
<defs>
<clipPath id="clip0_1_362">
<rect width="30" height="30" fill="white" transform="translate(5.78003 10.98)"/>
</clipPath>
<clipPath id="clip1_1_362">
<rect width="30" height="30" fill="white" transform="translate(5.78003 10.98)"/>
</clipPath>
<clipPath id="clip2_1_362">
<rect width="30" height="30" fill="white" transform="translate(5.78003 10.98)"/>
</clipPath>
<clipPath id="clip3_1_362">
<rect width="30" height="30" fill="white" transform="translate(45.78 10.98)"/>
</clipPath>
<clipPath id="clip4_1_362">
<rect width="30" height="30" fill="white" transform="translate(45.78 10.98)"/>
</clipPath>
<clipPath id="clip5_1_362">
<rect width="30" height="30" fill="white" transform="translate(45.78 10.98)"/>
</clipPath>
<clipPath id="clip6_1_362">
<rect width="30" height="30" fill="white" transform="translate(85.78 10.98)"/>
</clipPath>
<clipPath id="clip7_1_362">
<rect width="30" height="30" fill="white" transform="translate(85.78 10.98)"/>
</clipPath>
<clipPath id="clip8_1_362">
<rect width="30" height="30" fill="white" transform="translate(85.78 10.98)"/>
</clipPath>
</defs>
</svg>
